<?xml version="1.0" encoding="utf-8"?>
<!-- Generator: Adobe Illustrator 16.0.4, SVG Export Plug-In . SVG Version: 6.00 Build 0)  -->
<!DOCTYPE svg PUBLIC "-//W3C//DTD SVG 1.1//EN" "http://www.w3.org/Graphics/SVG/1.1/DTD/svg11.dtd">
<svg version="1.1" id="Layer_1" xmlns="http://www.w3.org/2000/svg" xmlns:xlink="http://www.w3.org/1999/xlink" x="0px" y="0px"
	 width="24px" height="24px" viewBox="0 0 24 24" enable-background="new 0 0 24 24" xml:space="preserve">
<g>
	<rect x="4" y="4" width="16" height="16"/>
</g>
<g enable-background="new    ">
	<path fill="#FFFFFF" d="M7.076,6.836c0-0.171,0.118-0.258,0.354-0.258h9.017l0.451,3.625h-0.419
		c-0.097-0.709-0.229-1.267-0.395-1.675s-0.427-0.723-0.781-0.942c-0.354-0.221-0.749-0.36-1.184-0.419
		c-0.436-0.06-1.051-0.089-1.845-0.089H8.891l3.158,4.575c0.15,0.215,0.226,0.354,0.226,0.419c0,0.097-0.091,0.241-0.274,0.435
		l-3.899,4.398h3.851c0.494,0,0.896-0.008,1.208-0.024c0.311-0.016,0.633-0.045,0.967-0.088c0.332-0.043,0.596-0.11,0.789-0.202
		c0.193-0.091,0.387-0.209,0.58-0.354c0.193-0.145,0.346-0.332,0.459-0.563c0.113-0.23,0.215-0.502,0.307-0.813
		c0.091-0.312,0.163-0.677,0.217-1.096h0.419l-0.451,3.818H7.409c-0.215,0-0.322-0.062-0.322-0.188c0-0.063,0.064-0.168,0.193-0.314
		l3.816-4.281c-0.109-0.14-0.262-0.361-0.458-0.664l-3.4-4.927C7.13,7.014,7.076,6.891,7.076,6.836z"/>
</g>
</svg>
